#!OML:ASF F:\VICON\USERDATA\INSTALL\rory3\rory3.ASF
:FULLY-SPECIFIED
:DEGREES
592
root 1.36688 17.8531 5.95778 -362.806 -0.919723 0.166
lowerback 23.1047 1.40972 -0.334637
upperback 2.16956 2.41374 5.65751
thorax -10.822 1.30793 5.76951
lowerneck -13.0149 -3.22635 -4.76412
upperneck 18.2719 -3.16399 -1.24448
head 7.85975 -1.95047 0.0408803
rclavicle 3.18055e-015 -1.59028e-015
rhumerus -29.8522 -32.3603 -65.8427
rradius 36.4912
rwrist -13.4282
rhand -22.9916 -3.102
rfingers 7.12502
rthumb 3.45122 -33.0538
lclavicle 3.18055e-015 -1.59028e-015
lhumerus -45.645 3.10652 87.4536
lradius 60.2553
lwrist 19.9126
lhand -15.53 48.9113
lfingers 7.12502
lthumb 10.6535 78.6212
rfemur -16.3214 4.77426 22.7825
rtibia 39.8112
rfoot -16.2692 -2.3882
rtoes 19.9529
lfemur -15.1782 -11.3393 -19.7513
ltibia 36.2162
lfoot -14.5629 -0.748439
ltoes -12.0603
593
root 1.35236 17.8579 5.97649 -362.813 -0.701322 0.190427
lowerback 22.9262 1.31714 -0.438782
upperback 2.20242 2.26127 5.6701
thorax -10.6754 1.23932 5.89169
lowerneck -12.9671 -3.11954 -4.87161
upperneck 18.2583 -3.00622 -1.1988
head 7.84688 -1.87833 0.0913465
rclavicle -8.74653e-015 -3.02153e-014
rhumerus -31.9298 -32.177 -65.064
rradius 39.0558
rwrist -16.6099
rhand -22.7755 -1.14674
rfingers 7.12502
rthumb 3.65992 -31.0951
lclavicle -8.74653e-015 -3.02153e-014
lhumerus -46.0961 4.25232 86.7513
lradius 59.637
lwrist 20.2639
lhand -15.1749 49.2065
lfingers 7.12502
lthumb 10.996 78.8985
rfemur -16.2027 4.63386 22.8289
rtibia 39.7239
rfoot -16.3378 -2.65568
rtoes 19.1631
lfemur -15.0359 -11.3357 -19.7249
ltibia 36.0974
lfoot -14.627 -1.04778
ltoes -12.1703
594
root 1.33669 17.8566 5.98099 -362.846 -0.641859 0.201031
lowerback 22.9924 1.31502 -0.559996
upperback 2.16963 2.22837 5.64349
thorax -10.7483 1.2306 5.94461
lowerneck -12.7949 -3.0261 -4.73229
upperneck 18.1608 -2.89636 -1.31442
head 7.7774 -1.82596 0.0459381
rclavicle 7.55382e-015 2.22639e-014
rhumerus -34.1253 -31.7068 -64.4906
rradius 42.3829
rwrist -20.2515
rhand -23.0794 -1.47757
rfingers 7.12502
rthumb 3.36637 -31.4307
lclavicle 7.55382e-015 2.22639e-014
lhumerus -46.4391 5.17106 86.008
lradius 58.7914
lwrist 20.507
lhand -15.3155 48.2993
lfingers 7.12502
lthumb 10.8605 77.9985
rfemur -16.0869 4.68342 22.9305
rtibia 39.6268
rfoot -16.3015 -3.02184
rtoes 18.5494
lfemur -14.9477 -11.1928 -19.6523
ltibia 36.0187
lfoot -14.6669 -1.34977
ltoes -11.3785
595
root 1.31819 17.8573 5.98568 -362.978 -0.716722 -0.0203971
lowerback 23.2297 1.30027 -0.495598
upperback 2.05889 2.23827 5.6541
thorax -11.0027 1.23839 5.92179
lowerneck -12.4266 -2.90449 -4.53051
upperneck 18.1356 -2.77614 -1.40504
head 7.69606 -1.76267 0.00187283
rclavicle -5.1684e-015 -1.59028e-015
rhumerus -36.1971 -32.2087 -63.5214
rradius 44.5865
rwrist -21.7881
rhand -22.4888 -0.693867
rfingers 7.12502
rthumb 3.93672 -30.6372
lclavicle -5.1684e-015 -1.59028e-015
lhumerus -47.1646 5.8565 85.3132
lradius 58.2802
lwrist 21.2376
lhand -15.4655 48.9735
lfingers 7.12502
lthumb 10.7158 78.6802
rfemur -15.8915 4.82496 23.338
rtibia 39.5243
rfoot -16.3003 -3.38721
rtoes 18.2008
lfemur -14.7954 -11.0122 -19.3262
ltibia 36.0083
lfoot -14.6245 -1.55668
ltoes -10.5462
596
root 1.29881 17.8607 5.99728 -363.117 -0.779185 -0.147603
lowerback 23.3151 1.28775 -0.55811
upperback 2.0571 2.21187 5.68788
thorax -11.0524 1.23101 6.0072
lowerneck -12.3071 -2.81756 -4.50931
upperneck 18.1337 -2.6646 -1.42362
head 7.67175 -1.70975 0.00572221
rclavicle 9.54166e-015 -3.81667e-014
rhumerus -38.1227 -31.8784 -62.8808
rradius 47.4165
rwrist -23.5274
rhand -21.9446 -0.626099
rfingers 7.12502
rthumb 4.46228 -30.5591
lclavicle 9.54166e-015 -3.81667e-014
lhumerus -47.9807 6.47781 84.7235
lradius 58.1152
lwrist 21.8809
lhand -15.7991 49.4208
lfingers 7.12502
lthumb 10.394 79.1439
rfemur -15.6464 4.99806 23.6445
rtibia 39.4424
rfoot -16.4014 -3.82374
rtoes 18.2058
lfemur -14.6138 -10.9363 -19.1061
ltibia 36.0287
lfoot -14.6352 -1.73712
ltoes -8.94839
597
root 1.2796 17.8606 6.00304 -363.225 -0.828238 -0.174683
lowerback 23.3767 1.26609 -0.702495
upperback 2.13539 2.14204 5.67825
thorax -10.9935 1.20246 6.10256
lowerneck -12.4908 -2.72517 -4.39207
upperneck 18.1649 -2.53827 -1.48719
head 7.7099 -1.64875 -0.0241601
rclavicle 2.66371e-014 3.81667e-014
rhumerus -39.8841 -31.4866 -62.5349
rradius 50.5765
rwrist -24.5973
rhand -21.8737 -0.83105
rfingers 7.12502
rthumb 4.53075 -30.7626
lclavicle 2.66371e-014 3.81667e-014
lhumerus -48.3922 7.23463 83.9906
lradius 57.5394
lwrist 21.9571
lhand -15.815 49.3229
lfingers 7.12502
lthumb 10.3786 79.0468
rfemur -15.4378 5.11342 23.8475
rtibia 39.3567
rfoot -16.4205 -4.20966
rtoes 18.4894
lfemur -14.4929 -10.8505 -18.9862
ltibia 36.0742
lfoot -14.6708 -1.93632
ltoes -7.92042
598
root 1.25968 17.8572 6.00465 -363.265 -0.84011 -0.292044
lowerback 23.4538 1.20288 -0.799906
upperback 2.15608 2.03977 5.72394
thorax -11.0053 1.16058 6.24683
lowerneck -12.7199 -2.5729 -4.24995
upperneck 18.3281 -2.30475 -1.67816
head 7.79725 -1.54965 -0.0904573
rclavicle 1.07344e-014 3.18055e-015
rhumerus -41.47 -30.936 -62.3045
rradius 53.657
rwrist -25.1343
rhand -21.8248 -0.710952
rfingers 7.12502
rthumb 4.57796 -30.6415
lclavicle 1.07344e-014 3.18055e-015
lhumerus -48.9086 7.91815 83.3316
lradius 56.8222
lwrist 22.1368
lhand -15.7875 49.7972
lfingers 7.12502
lthumb 10.4052 79.5197
rfemur -15.3304 5.19764 24.1478
rtibia 39.2845
rfoot -16.5447 -4.61522
rtoes 18.7258
lfemur -14.4608 -10.7282 -18.7431
ltibia 36.1099
lfoot -14.6812 -2.22522
ltoes -7.2272
